<?xml version="1.0" encoding="iso-8859-1"?>
<!-- Generator: Adobe Illustrator 19.0.0, SVG Export Plug-In . SVG Version: 6.00 Build 0)  -->
<svg version="1.1" id="Capa_1" xmlns="http://www.w3.org/2000/svg" xmlns:xlink="http://www.w3.org/1999/xlink" x="0px" y="0px"
	 viewBox="0 0 512 512" style="enable-background:new 0 0 512 512;" xml:space="preserve">
<path style="fill:#0050C3;" d="M124.346,339.845H0V170.704h124.346V339.845z"/>
<g>
	<path style="fill:#FFDE46;" d="M445.491,413.353l-21.049-21.506c37.057-36.27,57.465-84.703,57.465-136.375
		c0-51.868-20.542-100.43-57.839-136.741l20.993-21.563C488.227,139.194,512,195.414,512,255.473
		C512,315.304,488.38,371.374,445.491,413.353z"/>
	<path style="fill:#FFDE46;" d="M400.056,373.559l-20.426-22.099c26.749-24.723,42.09-59.708,42.09-95.987
		c0-36.471-15.477-71.584-42.461-96.334l20.342-22.178c33.181,30.435,52.212,73.63,52.212,118.512
		C451.813,300.117,432.948,343.158,400.056,373.559z"/>
	<path style="fill:#FFDE46;" d="M353.912,333.944l-18.845-23.462c16.82-13.512,26.467-33.562,26.467-55.011
		c0-21.629-9.782-41.786-26.838-55.302l18.691-23.585c24.303,19.259,38.241,48.012,38.241,78.888
		C391.627,286.089,377.88,314.69,353.912,333.944z"/>
</g>
<rect y="255.281" style="fill:#00317E;" width="124.345" height="84.562"/>
<g>
	<path style="fill:#EBB100;" d="M481.905,255.284c0,0.063,0.002,0.125,0.002,0.189c0,51.672-20.408,100.104-57.465,136.375
		l21.049,21.506C488.38,371.374,512,315.304,512,255.472c0-0.063-0.002-0.125-0.002-0.189h-30.093V255.284z"/>
	<path style="fill:#EBB100;" d="M421.718,255.284c0,0.063,0.002,0.125,0.002,0.189c0,36.278-15.342,71.265-42.09,95.987
		l20.426,22.099c32.892-30.401,51.757-73.442,51.757-118.087c0-0.063-0.002-0.125-0.002-0.189h-30.093V255.284z"/>
	<path style="fill:#EBB100;" d="M361.531,255.284c0,0.063,0.003,0.125,0.003,0.189c0,21.448-9.647,41.499-26.467,55.011
		l18.845,23.462c23.968-19.253,37.715-47.855,37.715-78.472c0-0.063-0.002-0.125-0.003-0.189H361.531z"/>
</g>
<polygon style="fill:#D3D0F3;" points="296.33,457.858 101.399,337.605 101.465,172.906 296.16,54.142 "/>
<polygon style="fill:#B9B6EC;" points="101.432,255.284 101.399,337.605 296.33,457.858 296.245,255.284 "/>
<g>
</g>
<g>
</g>
<g>
</g>
<g>
</g>
<g>
</g>
<g>
</g>
<g>
</g>
<g>
</g>
<g>
</g>
<g>
</g>
<g>
</g>
<g>
</g>
<g>
</g>
<g>
</g>
<g>
</g>
</svg>
