<?xml version="1.0" encoding="iso-8859-1"?>
<!-- Generator: Adobe Illustrator 19.0.0, SVG Export Plug-In . SVG Version: 6.00 Build 0)  -->
<svg version="1.1" id="Capa_1" xmlns="http://www.w3.org/2000/svg" xmlns:xlink="http://www.w3.org/1999/xlink" x="0px" y="0px"
	 viewBox="0 0 512 512" style="enable-background:new 0 0 512 512;" xml:space="preserve">
<linearGradient id="SVGID_1_" gradientUnits="userSpaceOnUse" x1="256" y1="490.4995" x2="256" y2="25.4985" gradientTransform="matrix(1 0 0 -1 0 513.999)">
	<stop  offset="0" style="stop-color:#2AF598"/>
	<stop  offset="1" style="stop-color:#009EFD"/>
</linearGradient>
<path style="fill:url(#SVGID_1_);" d="M491.422,138.858c-13.008-26.609-32.129-49.151-56.831-66.999
	C390.803,40.221,329.047,23.499,256,23.499S121.197,40.221,77.409,71.859c-24.702,17.848-43.823,40.39-56.831,66.999
	C6.924,166.79,0,199.304,0,235.499c0,78.285,32.285,138.172,93.614,174.195c-8.483,29.931-19.492,48.07-19.591,48.231
	l-18.984,30.521l35.956,0.053H91.1c0.104,0.001,0.208,0.001,0.319,0.001c11.347,0,63.406-2.448,105.735-44.91
	c18.66,2.596,38.403,3.909,58.846,3.909c73.047,0,134.803-16.723,178.591-48.36c24.702-17.848,43.823-40.39,56.831-66.999
	C505.076,304.208,512,271.693,512,235.499S505.076,166.79,491.422,138.858z M411.164,366.716
	C374.237,393.396,320.583,407.5,256,407.5c-22.19,0-43.364-1.686-62.935-5.009l-11.135-1.891l-7.369,8.559
	c-15.834,18.391-34.114,28.21-49.632,33.439c4.03-10.872,8.111-23.919,11.404-38.786l3.394-15.32l-14.072-6.941
	C68.818,353.515,40,304.375,40,235.499c0-57.903,20.468-102.051,60.836-131.217C137.763,77.601,191.417,63.499,256,63.499
	s118.237,14.103,155.164,40.783C451.532,133.449,472,177.595,472,235.499S451.532,337.549,411.164,366.716z M334.499,176.027
	c3.261,29.29-9.819,57.835-34.136,74.497C284.481,261.406,275,278.966,275,297.5h-40c0-31.733,15.983-61.63,42.754-79.973
	c12.103-8.292,18.613-22.498,16.991-37.072c-2.016-18.099-16.774-32.691-35.093-34.699c-11.876-1.303-23.165,2.234-31.781,9.958
	c-8.3,7.44-12.871,17.664-12.871,28.786h-40c0-22.313,9.539-43.661,26.172-58.57c16.943-15.188,39.84-22.454,62.838-19.936
	C300.784,110.022,330.429,139.477,334.499,176.027z M236,327.5h40v40h-40V327.5z"/>
<g>
</g>
<g>
</g>
<g>
</g>
<g>
</g>
<g>
</g>
<g>
</g>
<g>
</g>
<g>
</g>
<g>
</g>
<g>
</g>
<g>
</g>
<g>
</g>
<g>
</g>
<g>
</g>
<g>
</g>
</svg>
